<?xml version="1.0" encoding="UTF-8" standalone="no"?>
<!-- Created with Inkscape (http://www.inkscape.org/) -->

<svg
   xmlns:dc="http://purl.org/dc/elements/1.1/"
   xmlns:cc="http://creativecommons.org/ns#"
   xmlns:rdf="http://www.w3.org/1999/02/22-rdf-syntax-ns#"
   xmlns:svg="http://www.w3.org/2000/svg"
   xmlns="http://www.w3.org/2000/svg"
   xmlns:sodipodi="http://sodipodi.sourceforge.net/DTD/sodipodi-0.dtd"
   xmlns:inkscape="http://www.inkscape.org/namespaces/inkscape"
   width="100mm"
   height="100mm"
   viewBox="0 0 100 100"
   version="1.1"
   id="svg8"
   sodipodi:docname="logo.svg"
   inkscape:version="0.92.3 (2405546, 2018-03-11)"
   inkscape:export-filename="/home/john/Pictures/website/logo.png"
   inkscape:export-xdpi="96"
   inkscape:export-ydpi="96">
  <defs
     id="defs2">
    <inkscape:path-effect
       effect="spiro"
       id="path-effect1010"
       is_visible="true" />
    <inkscape:path-effect
       effect="spiro"
       id="path-effect1002"
       is_visible="true" />
    <inkscape:path-effect
       effect="spiro"
       id="path-effect998"
       is_visible="true" />
    <inkscape:path-effect
       effect="spiro"
       id="path-effect904"
       is_visible="true" />
    <inkscape:path-effect
       effect="spiro"
       id="path-effect900"
       is_visible="true" />
    <inkscape:path-effect
       effect="spiro"
       id="path-effect878"
       is_visible="true" />
    <inkscape:path-effect
       effect="spiro"
       id="path-effect878-3"
       is_visible="true" />
  </defs>
  <sodipodi:namedview
     id="base"
     pagecolor="#ffffff"
     bordercolor="#666666"
     borderopacity="1.0"
     inkscape:pageopacity="0"
     inkscape:pageshadow="2"
     inkscape:zoom="1.979899"
     inkscape:cx="170.08114"
     inkscape:cy="162.28892"
     inkscape:document-units="mm"
     inkscape:current-layer="layer1"
     showgrid="false"
     inkscape:window-width="1863"
     inkscape:window-height="1025"
     inkscape:window-x="57"
     inkscape:window-y="27"
     inkscape:window-maximized="1"
     inkscape:pagecheckerboard="true" />
  <metadata
     id="metadata5">
    <rdf:RDF>
      <cc:Work
         rdf:about="">
        <dc:format>image/svg+xml</dc:format>
        <dc:type
           rdf:resource="http://purl.org/dc/dcmitype/StillImage" />
        <dc:title></dc:title>
      </cc:Work>
    </rdf:RDF>
  </metadata>
  <g
     inkscape:label="Layer 1"
     inkscape:groupmode="layer"
     id="layer1"
     transform="translate(0,-197)">
    <flowRoot
       xml:space="preserve"
       id="flowRoot815"
       style="font-style:normal;font-weight:normal;font-size:40px;line-height:1.25;font-family:sans-serif;letter-spacing:0px;word-spacing:0px;fill:#000000;fill-opacity:1;stroke:none"><flowRegion
         id="flowRegion817"><rect
           id="rect819"
           width="495.71429"
           height="401.42856"
           x="157.14285"
           y="276.80539" /></flowRegion><flowPara
         id="flowPara821"></flowPara></flowRoot>    <path
       style="fill:none;stroke:#000000;stroke-width:3;stroke-linecap:round;stroke-linejoin:round;stroke-miterlimit:4;stroke-dasharray:none;stroke-opacity:1"
       d="M 65.797113,219.50127 23.787605,265.72811"
       id="path823"
       inkscape:connector-curvature="0" />
    <path
       style="fill:none;stroke:#000000;stroke-width:3;stroke-linecap:round;stroke-linejoin:round;stroke-miterlimit:4;stroke-dasharray:none;stroke-opacity:1"
       d="m 65.785266,219.50543 c -11.31883,11.30171 -24.685235,19.2648 -30.237687,16.47853 -4.784616,-2.60647 -2.492877,-11.38254 6.518196,-21.11591"
       id="path872"
       inkscape:connector-curvature="0"
       sodipodi:nodetypes="ccc" />
    <path
       style="fill:none;stroke:#000000;stroke-width:3;stroke-linecap:round;stroke-linejoin:round;stroke-miterlimit:4;stroke-dasharray:none;stroke-opacity:1"
       d="m 49.992383,237.00133 c -2.098746,2.6154 -3.130664,6.06231 -2.814343,9.40072 0.316321,3.33842 1.977266,6.53017 4.529881,8.70485 2.059546,1.75461 4.6765,2.84474 7.372631,3.07116 2.696132,0.22643 5.458248,-0.41196 7.781591,-1.79849 2.323344,-1.38653 4.196546,-3.51442 5.277291,-5.99482 1.080746,-2.4804 1.363748,-5.30117 0.797288,-7.94683"
       id="path898"
       inkscape:connector-curvature="0"
       inkscape:path-effect="#path-effect900"
       inkscape:original-d="m 49.992383,237.00133 c 0.571941,6.03512 1.143785,12.07032 1.715538,18.10557 0.571728,6.03522 14.152627,-8.44604 21.228801,-12.66898" />
    <path
       style="fill:none;stroke:#000000;stroke-width:3;stroke-linecap:round;stroke-linejoin:round;stroke-miterlimit:4;stroke-dasharray:none;stroke-opacity:1"
       d="m 23.787605,265.72811 c -0.160417,-3.38118 0.807296,-6.80626 2.713366,-9.60358 1.906071,-2.79732 4.739683,-4.951 7.945152,-6.03869 3.205468,-1.08769 6.764604,-1.10322 9.979442,-0.0435 3.214839,1.05968 6.067139,3.18854 7.99755,5.96912 1.526441,2.1987 2.466398,4.74832 3.23274,7.31289 0.766342,2.56456 1.37692,5.1801 2.324387,7.68342 0.947466,2.50332 2.262037,4.92321 4.22123,6.7469 0.979596,0.91185 2.114532,1.66479 3.360119,2.15427 1.245587,0.48948 2.603199,0.7111 3.935124,0.58053 1.933173,-0.18951 3.781306,-1.14123 5.058347,-2.60487 1.277042,-1.46364 1.969485,-3.42371 1.89522,-5.36473 -0.07426,-1.94102 -0.914453,-3.84245 -2.299597,-5.20424 -1.385144,-1.36178 -3.300594,-2.1695 -5.242596,-2.21074"
       id="path902"
       inkscape:connector-curvature="0"
       inkscape:path-effect="#path-effect904"
       inkscape:original-d="m 23.787605,265.72811 c 9.498406,-3.33265 19.090483,-6.47786 28.63551,-9.7167 9.545075,-3.2388 10.015268,17.08756 17.0736,24.47801 7.058335,7.39046 0.975171,-11.02542 -0.588626,-15.38458"
       sodipodi:nodetypes="ccsc" />
    <path
       style="fill:#000000;fill-opacity:1;stroke:#000000;stroke-width:1.14553714;stroke-linecap:round;stroke-linejoin:round;stroke-miterlimit:4;stroke-dasharray:none;stroke-opacity:1;paint-order:markers stroke fill"
       d="m 46.823432,250.24312 c -0.208901,-0.0972 -0.817833,-0.33342 -1.353087,-0.52542 -1.19148,-0.427 -3.665112,-0.94416 -4.883528,-1.02097 -0.41431,-0.0269 -0.764108,-0.0592 -0.777082,-0.0739 -0.01269,-0.0152 1.469295,-1.37914 3.293926,-3.03238 l 3.317535,-3.00588 -0.174285,0.88654 c -0.403966,2.05489 -0.123718,4.30213 0.783724,6.28293 0.166048,0.36246 0.299399,0.66876 0.296333,0.68063 -0.008,0.0323 -0.08629,0.002 -0.503549,-0.19152 z"
       id="path906"
       inkscape:connector-curvature="0" />
    <path
       style="fill:#000000;fill-opacity:1;stroke:#000000;stroke-width:1.81893539;stroke-linecap:round;stroke-linejoin:round;stroke-miterlimit:4;stroke-dasharray:none;stroke-opacity:1;paint-order:markers stroke fill"
       d="m 24.71618,262.36331 c 0.301312,-1.74765 1.513939,-4.1174 2.981306,-5.82616 1.587597,-1.8488 3.996902,-3.57684 6.496902,-4.65975 0.6812,-0.29512 1.257395,-0.51368 1.280438,-0.48578 0.03072,0.0372 -9.709673,10.59115 -10.751598,11.64955 -0.100597,0.10232 -0.102937,-0.12159 -0.007,-0.67786 z"
       id="path927"
       inkscape:connector-curvature="0" />
    <ellipse
       style="fill:#000000;fill-opacity:1;stroke:#000000;stroke-width:1.60455763;stroke-linecap:round;stroke-linejoin:round;stroke-miterlimit:4;stroke-dasharray:none;stroke-opacity:1;paint-order:markers stroke fill"
       id="path935"
       cx="81.62075"
       cy="257.45767"
       transform="matrix(0.99437278,0.10593763,-0.15037968,0.98862832,0,0)"
       rx="5.9596481"
       ry="5.0165973" />
    <ellipse
       style="fill:#ffffff;fill-opacity:1;stroke:none;stroke-width:2.37805724;stroke-linecap:round;stroke-linejoin:round;stroke-miterlimit:4;stroke-dasharray:none;stroke-opacity:1;paint-order:markers stroke fill"
       id="path939"
       cx="82.723831"
       cy="256.61365"
       rx="4.1483827"
       ry="3.4919455"
       transform="matrix(0.99437278,0.10593763,-0.15037968,0.98862832,0,0)" />
    <path
       style="fill:none;stroke:#000000;stroke-width:3;stroke-linecap:butt;stroke-linejoin:miter;stroke-miterlimit:4;stroke-dasharray:none;stroke-opacity:1"
       d="m 57.573182,252.0235 c -1.972944,-0.99335 -3.403328,-2.99555 -3.703459,-5.18397 -0.216586,-1.57924 0.14065,-3.23095 0.990479,-4.57954 0.849829,-1.3486 2.185659,-2.38363 3.703752,-2.86975 1.518094,-0.48613 3.206674,-0.41957 4.681795,0.18453 1.475122,0.6041 2.725341,1.74107 3.466387,3.15237"
       id="path1000"
       inkscape:connector-curvature="0"
       inkscape:path-effect="#path-effect1002"
       inkscape:original-d="m 57.573182,252.0235 c -1.234464,-1.72812 -2.468949,-3.45613 -3.703459,-5.18397 -1.234487,-1.72785 8.561609,-2.74172 12.842413,-4.11239" />
  </g>
</svg>
