<?xml version="1.0" encoding="UTF-8" standalone="no"?>
<!-- Created with Inkscape (http://www.inkscape.org/) -->

<svg
   xmlns:dc="http://purl.org/dc/elements/1.1/"
   xmlns:cc="http://creativecommons.org/ns#"
   xmlns:rdf="http://www.w3.org/1999/02/22-rdf-syntax-ns#"
   xmlns:svg="http://www.w3.org/2000/svg"
   xmlns="http://www.w3.org/2000/svg"
   xmlns:sodipodi="http://sodipodi.sourceforge.net/DTD/sodipodi-0.dtd"
   xmlns:inkscape="http://www.inkscape.org/namespaces/inkscape"
   width="36mm"
   height="36mm"
   viewBox="0 0 36 36"
   version="1.1"
   id="svg8"
   sodipodi:docname="logo_36x36.svg"
   inkscape:version="0.92.3 (2405546, 2018-03-11)"
   inkscape:export-filename="/home/john/Pictures/website/logo.png"
   inkscape:export-xdpi="96"
   inkscape:export-ydpi="96">
  <defs
     id="defs2">
    <inkscape:path-effect
       effect="spiro"
       id="path-effect1010"
       is_visible="true" />
    <inkscape:path-effect
       effect="spiro"
       id="path-effect1002"
       is_visible="true" />
    <inkscape:path-effect
       effect="spiro"
       id="path-effect998"
       is_visible="true" />
    <inkscape:path-effect
       effect="spiro"
       id="path-effect904"
       is_visible="true" />
    <inkscape:path-effect
       effect="spiro"
       id="path-effect900"
       is_visible="true" />
    <inkscape:path-effect
       effect="spiro"
       id="path-effect878"
       is_visible="true" />
    <inkscape:path-effect
       effect="spiro"
       id="path-effect878-3"
       is_visible="true" />
  </defs>
  <sodipodi:namedview
     id="base"
     pagecolor="#ffffff"
     bordercolor="#666666"
     borderopacity="1.0"
     inkscape:pageopacity="0"
     inkscape:pageshadow="2"
     inkscape:zoom="5.6"
     inkscape:cx="70.289612"
     inkscape:cy="67.785003"
     inkscape:document-units="mm"
     inkscape:current-layer="layer1"
     showgrid="false"
     inkscape:window-width="1863"
     inkscape:window-height="1025"
     inkscape:window-x="57"
     inkscape:window-y="27"
     inkscape:window-maximized="1"
     inkscape:pagecheckerboard="true" />
  <metadata
     id="metadata5">
    <rdf:RDF>
      <cc:Work
         rdf:about="">
        <dc:format>image/svg+xml</dc:format>
        <dc:type
           rdf:resource="http://purl.org/dc/dcmitype/StillImage" />
        <dc:title></dc:title>
      </cc:Work>
    </rdf:RDF>
  </metadata>
  <g
     inkscape:label="Layer 1"
     inkscape:groupmode="layer"
     id="layer1"
     transform="translate(0,-261)">
    <flowRoot
       xml:space="preserve"
       id="flowRoot815"
       style="font-style:normal;font-weight:normal;font-size:40px;line-height:1.25;font-family:sans-serif;letter-spacing:0px;word-spacing:0px;fill:#000000;fill-opacity:1;stroke:none"><flowRegion
         id="flowRegion817"><rect
           id="rect819"
           width="495.71429"
           height="401.42856"
           x="157.14285"
           y="276.80539" /></flowRegion><flowPara
         id="flowPara821"></flowPara></flowRoot>    <path
       style="fill:none;stroke:#000000;stroke-width:1;stroke-linecap:round;stroke-linejoin:round;stroke-miterlimit:4;stroke-dasharray:none;stroke-opacity:1"
       d="M 24.422778,266.81483 6.5492268,287.59531"
       id="path823"
       inkscape:connector-curvature="0" />
    <path
       style="fill:none;stroke:#000000;stroke-width:1;stroke-linecap:round;stroke-linejoin:round;stroke-miterlimit:4;stroke-dasharray:none;stroke-opacity:1"
       d="m 24.417738,266.8167 c -4.81576,5.08049 -10.50269,8.66016 -12.86506,7.40764 -2.0356842,-1.17169 -1.060631,-5.11682 2.77326,-9.49229"
       id="path872"
       inkscape:connector-curvature="0"
       sodipodi:nodetypes="ccc" />
    <path
       style="fill:none;stroke:#000000;stroke-width:1;stroke-linecap:round;stroke-linejoin:round;stroke-miterlimit:4;stroke-dasharray:none;stroke-opacity:1"
       d="m 17.698428,274.68168 c -1.001946,1.14597 -1.510524,2.70939 -1.374559,4.22552 0.135965,1.51614 0.914602,2.96412 2.104459,3.91353 0.91023,0.72629 2.049593,1.16096 3.212285,1.2255 1.162693,0.0645 2.343162,-0.24137 3.32818,-0.86247 0.985018,-0.62109 1.769879,-1.55441 2.212815,-2.63136 0.442936,-1.07695 0.54183,-2.2924 0.27882,-3.42679"
       id="path898"
       inkscape:connector-curvature="0"
       inkscape:path-effect="#path-effect900"
       inkscape:original-d="m 17.698428,274.68168 c 0.24334,2.71299 0.48664,5.42601 0.7299,8.13905 0.24325,2.71303 6.02144,-3.79677 9.0321,-5.69512" />
    <path
       style="fill:none;stroke:#000000;stroke-width:1;stroke-linecap:round;stroke-linejoin:round;stroke-miterlimit:4;stroke-dasharray:none;stroke-opacity:1"
       d="m 6.5492268,287.59531 c -0.1079888,-1.45172 0.2723861,-2.9355 1.06547,-4.15623 0.793084,-1.22073 1.9942408,-2.17126 3.3645662,-2.66255 1.370326,-0.49129 2.901811,-0.52045 4.289849,-0.0817 1.388038,0.43876 2.624517,1.34287 3.463506,2.53251 0.677026,0.95999 1.090393,2.08016 1.417632,3.20837 0.327239,1.12821 0.576326,2.27999 0.963864,3.38893 0.387538,1.10894 0.925605,2.18831 1.748338,3.02679 0.411367,0.41924 0.891691,0.77407 1.425494,1.01909 0.533803,0.24503 1.121804,0.3785 1.708882,0.36049 0.908655,-0.0279 1.800119,-0.43107 2.421092,-1.09501 0.620973,-0.66395 0.963701,-1.58036 0.930803,-2.48884 -0.0329,-0.90849 -0.441013,-1.79771 -1.108383,-2.415 -0.667369,-0.6173 -1.58566,-0.95495 -2.493952,-0.91703"
       id="path902"
       inkscape:connector-curvature="0"
       inkscape:path-effect="#path-effect904"
       inkscape:original-d="m 6.5492268,287.59531 c 4.0412342,-1.49813 8.1223212,-2.91201 12.1833912,-4.36797 4.06109,-1.45595 4.26114,7.68142 7.26421,11.00367 3.00307,3.32225 0.4149,-4.95629 -0.25044,-6.91588"
       sodipodi:nodetypes="ccsc" />
    <path
       style="fill:#000000;fill-opacity:1;stroke:#000000;stroke-width:0.50098127;stroke-linecap:round;stroke-linejoin:round;stroke-miterlimit:4;stroke-dasharray:none;stroke-opacity:1;paint-order:markers stroke fill"
       d="m 16.350152,280.6343 c -0.08888,-0.0437 -0.347959,-0.14988 -0.57569,-0.23619 -0.506933,-0.19195 -1.559375,-0.42443 -2.077768,-0.45896 -0.176274,-0.0121 -0.325101,-0.0266 -0.330621,-0.0332 -0.0054,-0.007 0.625133,-0.61997 1.401449,-1.36316 l 1.411493,-1.35124 -0.07415,0.39853 c -0.171873,0.92374 -0.05264,1.93395 0.333447,2.82438 0.07065,0.16294 0.127383,0.30063 0.126079,0.30597 -0.0034,0.0145 -0.03671,0.001 -0.214242,-0.0861 z"
       id="path906"
       inkscape:connector-curvature="0" />
    <path
       style="fill:#000000;fill-opacity:1;stroke:#000000;stroke-width:0.79548061;stroke-linecap:round;stroke-linejoin:round;stroke-miterlimit:4;stroke-dasharray:none;stroke-opacity:1;paint-order:markers stroke fill"
       d="m 6.9443017,286.08273 c 0.1281976,-0.78563 0.6441277,-1.85091 1.2684394,-2.61905 0.6754668,-0.8311 1.7005406,-1.60791 2.7642019,-2.09471 0.289826,-0.13267 0.534977,-0.23092 0.544781,-0.21838 0.01307,0.0167 -4.1311216,4.76107 -4.5744236,5.23686 -0.042804,0.046 -0.043801,-0.0547 -0.00299,-0.30472 z"
       id="path927"
       inkscape:connector-curvature="0" />
    <ellipse
       style="fill:#000000;fill-opacity:1;stroke:#000000;stroke-width:0.70154113;stroke-linecap:round;stroke-linejoin:round;stroke-miterlimit:4;stroke-dasharray:none;stroke-opacity:1;paint-order:markers stroke fill"
       id="path935"
       cx="55.183601"
       cy="283.16525"
       transform="matrix(0.99372426,0.11185748,-0.14249623,0.98979534,0,0)"
       rx="2.5372732"
       ry="2.2524662" />
    <ellipse
       style="fill:#ffffff;fill-opacity:1;stroke:none;stroke-width:1.03972888;stroke-linecap:round;stroke-linejoin:round;stroke-miterlimit:4;stroke-dasharray:none;stroke-opacity:1;paint-order:markers stroke fill"
       id="path939"
       cx="55.653229"
       cy="282.78629"
       rx="1.7661411"
       ry="1.5678933"
       transform="matrix(0.99372426,0.11185748,-0.14249623,0.98979534,0,0)" />
    <path
       style="fill:none;stroke:#000000;stroke-width:1;stroke-linecap:butt;stroke-linejoin:miter;stroke-miterlimit:4;stroke-dasharray:none;stroke-opacity:1"
       d="m 20.923788,281.43464 c -0.866228,-0.45216 -1.478751,-1.35804 -1.57569,-2.33036 -0.06577,-0.65973 0.0983,-1.34015 0.457513,-1.8974 0.359219,-0.55725 0.911199,-0.98761 1.539223,-1.2001 0.628025,-0.21248 1.327918,-0.20567 1.951687,0.019 0.623769,0.22467 1.167265,0.6657 1.515567,1.22984"
       id="path1000"
       inkscape:connector-curvature="0"
       inkscape:path-effect="#path-effect1002"
       inkscape:original-d="m 20.923788,281.43464 c -0.52522,-0.77685 -1.05045,-1.55364 -1.57569,-2.33036 -0.52523,-0.77673 3.64266,-1.2325 5.46399,-1.84866" />
  </g>
</svg>
